<svg id="Layer_2" data-name="Layer 2" xmlns="http://www.w3.org/2000/svg" viewBox="0 0 1124.03 1124.03"><defs><style>.cls-1{fill:#5684c4;}.cls-2{fill:#fff;}</style></defs><title>ayush-blue</title><rect class="cls-1" width="1124.03" height="1124.03" rx="299.92"/><polyline class="cls-2" points="240.79 597.91 313.24 597.91 599.01 597.91 671.01 561.91 599.01 525.91 313.24 525.91 240.79 525.91"/><polyline class="cls-2" points="313.24 597.91 599.01 597.91 671.01 561.91 599.01 525.91 313.24 525.91"/><path class="cls-2" d="M963.93,566.83v324a36,36,0,0,1-72,0v-324c0-159.06-128.94-288-288-288-134.2,0-247,91.78-278.92,216H251.13c33.36-164.32,178.64-288,352.8-288C802.75,206.83,963.93,368,963.93,566.83Z" transform="translate(-4.92 -4.92)"/><polygon class="cls-2" points="671.01 561.91 599.01 597.91 203.01 597.91 203.01 525.91 599.01 525.91 671.01 561.91"/><path class="cls-2" d="M171.93,530.83v72h-36a36,36,0,1,1,0-72Z" transform="translate(-4.92 -4.92)"/><path class="cls-2" d="M251.13,638.83H325c32,124.22,144.72,216,278.92,216v72C429.77,926.83,284.49,803.15,251.13,638.83Z" transform="translate(-4.92 -4.92)"/><path class="cls-2" d="M659.9,910.5l-.26-5.24a27,27,0,0,1-2.92,2.46,18,18,0,0,1-3.35,1.95,19.13,19.13,0,0,1-4,1.28,23.07,23.07,0,0,1-4.72.45,18,18,0,0,1-6-.9,12.23,12.23,0,0,1-4.3-2.52,10.4,10.4,0,0,1-2.63-3.9,13.61,13.61,0,0,1-.9-5,10.67,10.67,0,0,1,1.33-5.23,11.55,11.55,0,0,1,4-4.13A22.31,22.31,0,0,1,643,887a40.78,40.78,0,0,1,9.55-1h5.79v-2.41a7.63,7.63,0,0,0-.48-2.77,5,5,0,0,0-1.55-2.11,7.73,7.73,0,0,0-2.76-1.34,16,16,0,0,0-4.18-.47,37,37,0,0,0-7.72.81,43.61,43.61,0,0,0-7.37,2.26v-7.67a46.06,46.06,0,0,1,7.33-1.89,48.53,48.53,0,0,1,8.63-.75,36.24,36.24,0,0,1,8.44.85,15.94,15.94,0,0,1,5.81,2.53,10.15,10.15,0,0,1,3.37,4.24,14.82,14.82,0,0,1,1.09,5.92V910.5Zm-1.52-17.68h-6.49a18.59,18.59,0,0,0-4.56.48,8.87,8.87,0,0,0-3.05,1.3,5.31,5.31,0,0,0-1.72,1.9,5.13,5.13,0,0,0-.54,2.31,4.35,4.35,0,0,0,1.74,3.72,7.86,7.86,0,0,0,4.74,1.28,8.88,8.88,0,0,0,4.61-1.46,32.56,32.56,0,0,0,5.27-4.17Z" transform="translate(-4.92 -4.92)"/><path class="cls-2" d="M707.74,906.13a67.89,67.89,0,0,1-4.8,9.11,30.3,30.3,0,0,1-5.5,6.54,20.94,20.94,0,0,1-6.68,3.93,24.27,24.27,0,0,1-8.24,1.32c-.73,0-1.52,0-2.37-.1s-1.74-.16-2.64-.29v-8.15l1.2.18q.67.09,1.41.15c.5,0,1,.08,1.5.1s1,0,1.42,0a9,9,0,0,0,3.39-.63,10.49,10.49,0,0,0,2.89-1.75,13.93,13.93,0,0,0,2.42-2.68,20.63,20.63,0,0,0,1.91-3.4l-17.53-40H688l9.18,22.67,2.74,7.32,2.7-7,9.26-23h11.4Z" transform="translate(-4.92 -4.92)"/><path class="cls-2" d="M740.67,870.51v26A7.72,7.72,0,0,0,742,901.5a4.93,4.93,0,0,0,4.09,1.68,8.07,8.07,0,0,0,5.11-2,36.85,36.85,0,0,0,5.2-5.37V870.51H767v40h-9.18l-.26-5.91a33.77,33.77,0,0,1-2.82,2.8,15.91,15.91,0,0,1-6.77,3.52,18,18,0,0,1-4.37.49,16.14,16.14,0,0,1-5.94-1,11.33,11.33,0,0,1-4.24-2.85,12,12,0,0,1-2.54-4.43,18.27,18.27,0,0,1-.85-5.77V870.51Z" transform="translate(-4.92 -4.92)"/><path class="cls-2" d="M815.58,898.73a10,10,0,0,1-1.68,5.84,12.66,12.66,0,0,1-4.44,3.94,21.35,21.35,0,0,1-6.26,2.2,36.91,36.91,0,0,1-7.16.69,83.15,83.15,0,0,1-8.78-.41,66.13,66.13,0,0,1-7.4-1.2v-8.66a44.64,44.64,0,0,0,8.16,2.22,46,46,0,0,0,7.68.69,12.76,12.76,0,0,0,6.24-1.2,3.54,3.54,0,0,0,2.06-3.13,3.23,3.23,0,0,0-.43-1.65,4.3,4.3,0,0,0-1.63-1.44,18.89,18.89,0,0,0-3.37-1.41c-1.45-.49-3.35-1-5.7-1.64a38.82,38.82,0,0,1-5.72-1.87,14.77,14.77,0,0,1-4.07-2.46,9.24,9.24,0,0,1-2.41-3.28,11,11,0,0,1-.81-4.39,9.27,9.27,0,0,1,1.22-4.61,11.36,11.36,0,0,1,3.63-3.8,19.5,19.5,0,0,1,6-2.58,33.58,33.58,0,0,1,8.44-.94,62,62,0,0,1,7.39.39c2.15.27,4,.55,5.7.87v7.83a47.93,47.93,0,0,0-13.7-2,11,11,0,0,0-5.24,1.07,3.28,3.28,0,0,0-1.59,4.56,3.86,3.86,0,0,0,1.54,1.38,19.64,19.64,0,0,0,3.22,1.4c1.38.48,3.2,1,5.46,1.59a45.09,45.09,0,0,1,6.44,2.11,15.37,15.37,0,0,1,4.2,2.54,8.29,8.29,0,0,1,2.28,3.23A11.49,11.49,0,0,1,815.58,898.73Z" transform="translate(-4.92 -4.92)"/><path class="cls-2" d="M854.46,910.5V884.44q0-6.57-5.39-6.57a8.15,8.15,0,0,0-5.16,2,35.73,35.73,0,0,0-5.19,5.36V910.5H828.1V854.88h10.62v13.7l-.53,7.24a31.71,31.71,0,0,1,2.74-2.62,15.2,15.2,0,0,1,3-2,15.86,15.86,0,0,1,3.48-1.2,19.46,19.46,0,0,1,4.13-.41,15.9,15.9,0,0,1,5.91,1,11.35,11.35,0,0,1,4.22,2.84,11.9,11.9,0,0,1,2.55,4.41,18.49,18.49,0,0,1,.85,5.76V910.5Z" transform="translate(-4.92 -4.92)"/></svg>