<svg xmlns="http://www.w3.org/2000/svg" viewBox="0 0 864 720.2"><defs><style>.cls-1{fill:#5684c4;}</style></defs><title>Asset 1</title><g id="Layer_2" data-name="Layer 2"><g id="Layer_2-2" data-name="Layer 2"><polyline class="cls-1" points="145.78 396 218.23 396 504 396 576 360 504 324 218.23 324 145.78 324"/><polyline class="cls-1" points="218.23 396 504 396 576 360 504 324 218.23 324"/><path class="cls-1" d="M864,360V684a36,36,0,0,1-72,0V360C792,200.94,663.06,72,504,72c-134.2,0-247,91.78-278.92,216H151.2C184.56,123.68,329.84,0,504,0,702.82,0,864,161.18,864,360Z"/><polygon class="cls-1" points="576 360 504 396 108 396 108 324 504 324 576 360"/><path class="cls-1" d="M72,324v72H36a36,36,0,0,1,0-72Z"/><path class="cls-1" d="M151.2,432h73.88C257,556.22,369.8,648,504,648v72C329.84,720,184.56,596.32,151.2,432Z"/><path class="cls-1" d="M560,703.67l-.26-5.23a29.47,29.47,0,0,1-2.92,2.46,18.57,18.57,0,0,1-3.35,1.94,18.37,18.37,0,0,1-4,1.28,22.29,22.29,0,0,1-4.72.46,18,18,0,0,1-6-.91,12.08,12.08,0,0,1-4.3-2.52,10.28,10.28,0,0,1-2.63-3.89,13.69,13.69,0,0,1-.89-5,10.7,10.7,0,0,1,1.32-5.24,11.55,11.55,0,0,1,4.05-4.13,22.31,22.31,0,0,1,6.78-2.72,41.32,41.32,0,0,1,9.55-1h5.79v-2.4A7.65,7.65,0,0,0,558,674a5,5,0,0,0-1.55-2.1,7.41,7.41,0,0,0-2.76-1.34,15.56,15.56,0,0,0-4.17-.47,37.08,37.08,0,0,0-7.73.8,42.75,42.75,0,0,0-7.37,2.27v-7.68a46.06,46.06,0,0,1,7.33-1.89,48.56,48.56,0,0,1,8.64-.75,36.14,36.14,0,0,1,8.43.85,15.78,15.78,0,0,1,5.81,2.54,10.19,10.19,0,0,1,3.37,4.23,14.86,14.86,0,0,1,1.09,5.92v27.32ZM558.45,686H552a18.63,18.63,0,0,0-4.56.47,9.16,9.16,0,0,0-3,1.3,5.33,5.33,0,0,0-1.72,1.91,5.08,5.08,0,0,0-.54,2.3,4.32,4.32,0,0,0,1.74,3.72,7.86,7.86,0,0,0,4.74,1.28,8.88,8.88,0,0,0,4.61-1.46,32.56,32.56,0,0,0,5.27-4.17Z"/><path class="cls-1" d="M607.82,699.3a68.41,68.41,0,0,1-4.81,9.11,30.06,30.06,0,0,1-5.5,6.54,20.86,20.86,0,0,1-6.68,3.94,24.52,24.52,0,0,1-8.24,1.31q-1.1,0-2.37-.09t-2.64-.3v-8.15l1.2.18c.45.06.92.12,1.41.16s1,.07,1.51.09,1,0,1.41,0a9,9,0,0,0,3.39-.63,10.34,10.34,0,0,0,2.89-1.75,14.17,14.17,0,0,0,2.42-2.67,21.15,21.15,0,0,0,1.91-3.41l-17.53-40H588l9.18,22.67,2.74,7.32,2.7-7,9.26-23h11.4Z"/><path class="cls-1" d="M640.74,663.68v26.06a7.76,7.76,0,0,0,1.35,4.94,5,5,0,0,0,4.09,1.67,8,8,0,0,0,5.11-2,35.86,35.86,0,0,0,5.2-5.37V663.68H667.1v40h-9.18l-.26-5.9a35.21,35.21,0,0,1-2.82,2.79,16.43,16.43,0,0,1-3.11,2.15,15.82,15.82,0,0,1-3.66,1.37,18,18,0,0,1-4.37.5,16.14,16.14,0,0,1-5.94-1,11.33,11.33,0,0,1-4.24-2.85,11.91,11.91,0,0,1-2.54-4.43,18.27,18.27,0,0,1-.85-5.77V663.68Z"/><path class="cls-1" d="M715.65,691.9a10,10,0,0,1-1.68,5.85,12.64,12.64,0,0,1-4.44,3.93,21.55,21.55,0,0,1-6.26,2.21,36.88,36.88,0,0,1-7.15.69,83,83,0,0,1-8.79-.42,61.83,61.83,0,0,1-7.4-1.2V694.3a43.89,43.89,0,0,0,8.16,2.23,46,46,0,0,0,7.68.69A12.76,12.76,0,0,0,702,696a3.58,3.58,0,0,0,2.07-3.13,3.24,3.24,0,0,0-.44-1.66A4.2,4.2,0,0,0,702,689.8a18.8,18.8,0,0,0-3.37-1.42q-2.17-.74-5.7-1.63a41.79,41.79,0,0,1-5.72-1.87,15.27,15.27,0,0,1-4.07-2.46,9.37,9.37,0,0,1-2.41-3.29,11,11,0,0,1-.81-4.39,9.3,9.3,0,0,1,1.22-4.61,11.34,11.34,0,0,1,3.63-3.79,19.5,19.5,0,0,1,6-2.58,33.55,33.55,0,0,1,8.44-1,59.84,59.84,0,0,1,7.39.4q3.23.39,5.7.86v7.84a48.32,48.32,0,0,0-7.11-1.56,49.2,49.2,0,0,0-6.59-.45A11.05,11.05,0,0,0,693.4,671a3.25,3.25,0,0,0-2,2.95,3.32,3.32,0,0,0,.39,1.62,4,4,0,0,0,1.54,1.37,19.17,19.17,0,0,0,3.22,1.4q2.07.74,5.46,1.6a44,44,0,0,1,6.44,2.1,15.62,15.62,0,0,1,4.2,2.54,8.25,8.25,0,0,1,2.28,3.23A11.53,11.53,0,0,1,715.65,691.9Z"/><path class="cls-1" d="M754.53,703.67V677.61c0-4.38-1.79-6.57-5.39-6.57a8.17,8.17,0,0,0-5.16,2,35.13,35.13,0,0,0-5.19,5.35v25.31H728.17V648.05h10.62v13.7l-.53,7.24a30.4,30.4,0,0,1,2.75-2.62,14.39,14.39,0,0,1,3-1.94,14.89,14.89,0,0,1,3.48-1.2,18.8,18.8,0,0,1,4.13-.42,15.9,15.9,0,0,1,5.91,1,11.33,11.33,0,0,1,4.22,2.83,11.9,11.9,0,0,1,2.55,4.41,18.56,18.56,0,0,1,.85,5.77v26.84Z"/></g></g></svg>