<svg xmlns="http://www.w3.org/2000/svg" viewBox="0 0 419.99 745.81"><defs><style>.cls-1{fill:#ee3324;}.cls-2{fill:#d83327;}</style></defs><title>Asset 1</title><g id="Layer_2" data-name="Layer 2"><g id="Layer_1-2" data-name="Layer 1"><path class="cls-1" d="M103.87,3.49C113.42-11.92,280.54,21.34,368,150.93c89,131.84,40.3,281.69,24.36,330.77-25.74,79.28-74.9,148.59-88.46,143.59-8.29-3.07,2.49-31.78-12.82-46.16-24.49-23-92.69,12.35-115.38,24.36C66.37,661.32,1.58,747.17,0,745.8c-1.21-1.07,40.75-50.28,44.87-55.13,31.35-36.9,144.18-179.86,147.43-378.21.89-54,3.26-198.64-73.07-284.61C112.3,20,100.86,8.35,103.87,3.49Z"/><path class="cls-2" d="M124.38,6.05c9.75-8.47,121.33,64.12,173.08,189.75,0,0,53.59,130.07,0,282.05-6,17.09-17.51,48.37-47.43,69.23-14,9.77-25.38,12.59-37.18,16.67-70.91,24.47-110.58,77.82-114.11,74.36C94.86,634.28,159.51,585.54,200,509.9c79.6-148.62,22.19-319.32,14.1-342.31C177.73,64.21,116.74,12.71,124.38,6.05Z"/></g></g></svg>